<mxfile host="app.diagrams.net" modified="2022-12-06T15:18:41.741Z" agent="5.0 (Windows NT 10.0; Win64; x64) AppleWebKit/537.36 (KHTML, like Gecko) Chrome/107.0.0.0 Safari/537.36 Edg/107.0.1418.62" version="20.6.0" etag="DSmS5KBVoZSHEBkP1f5A" type="github">
  <diagram id="ag-XBn76STHC8mKQn-G7" name="第 1 页">
    <mxGraphModel dx="1020" dy="869" grid="1" gridSize="10" guides="1" tooltips="1" connect="1" arrows="1" fold="1" page="1" pageScale="1" pageWidth="827" pageHeight="1169" math="0" shadow="0">
      <root>
        <mxCell id="0" />
        <mxCell id="1" parent="0" />
        <mxCell id="UGIFeQAbizKQnOjiTDYc-1" style="edgeStyle=orthogonalEdgeStyle;curved=1;rounded=0;orthogonalLoop=1;jettySize=auto;html=1;exitX=1;exitY=0.5;exitDx=0;exitDy=0;entryX=0;entryY=0;entryDx=0;entryDy=0;" edge="1" parent="1" source="UGIFeQAbizKQnOjiTDYc-3" target="UGIFeQAbizKQnOjiTDYc-14">
          <mxGeometry relative="1" as="geometry" />
        </mxCell>
        <mxCell id="UGIFeQAbizKQnOjiTDYc-22" value="查询信息" style="edgeLabel;html=1;align=center;verticalAlign=middle;resizable=0;points=[];" vertex="1" connectable="0" parent="UGIFeQAbizKQnOjiTDYc-1">
          <mxGeometry x="0.2101" y="2" relative="1" as="geometry">
            <mxPoint as="offset" />
          </mxGeometry>
        </mxCell>
        <mxCell id="UGIFeQAbizKQnOjiTDYc-3" value="学生/教职工" style="rounded=0;whiteSpace=wrap;html=1;" vertex="1" parent="1">
          <mxGeometry x="40" y="140" width="90" height="50" as="geometry" />
        </mxCell>
        <mxCell id="UGIFeQAbizKQnOjiTDYc-31" style="edgeStyle=orthogonalEdgeStyle;curved=1;rounded=0;orthogonalLoop=1;jettySize=auto;html=1;exitX=0.25;exitY=1;exitDx=0;exitDy=0;entryX=1.013;entryY=0.613;entryDx=0;entryDy=0;entryPerimeter=0;" edge="1" parent="1" source="UGIFeQAbizKQnOjiTDYc-6" target="UGIFeQAbizKQnOjiTDYc-17">
          <mxGeometry relative="1" as="geometry" />
        </mxCell>
        <mxCell id="UGIFeQAbizKQnOjiTDYc-6" value="饭卡信息数据" style="shape=partialRectangle;whiteSpace=wrap;html=1;left=0;right=0;fillColor=none;" vertex="1" parent="1">
          <mxGeometry x="470" y="350" width="120" height="60" as="geometry" />
        </mxCell>
        <mxCell id="UGIFeQAbizKQnOjiTDYc-30" style="edgeStyle=orthogonalEdgeStyle;curved=1;rounded=0;orthogonalLoop=1;jettySize=auto;html=1;exitX=0.5;exitY=1;exitDx=0;exitDy=0;entryX=0.95;entryY=0.35;entryDx=0;entryDy=0;entryPerimeter=0;" edge="1" parent="1" source="UGIFeQAbizKQnOjiTDYc-9" target="UGIFeQAbizKQnOjiTDYc-17">
          <mxGeometry relative="1" as="geometry" />
        </mxCell>
        <mxCell id="UGIFeQAbizKQnOjiTDYc-9" value="饭卡历史信息数据" style="shape=partialRectangle;whiteSpace=wrap;html=1;left=0;right=0;fillColor=none;" vertex="1" parent="1">
          <mxGeometry x="290" y="350" width="120" height="60" as="geometry" />
        </mxCell>
        <mxCell id="UGIFeQAbizKQnOjiTDYc-25" style="edgeStyle=orthogonalEdgeStyle;curved=1;rounded=0;orthogonalLoop=1;jettySize=auto;html=1;exitX=0;exitY=1;exitDx=0;exitDy=0;" edge="1" parent="1" source="UGIFeQAbizKQnOjiTDYc-14" target="UGIFeQAbizKQnOjiTDYc-19">
          <mxGeometry relative="1" as="geometry" />
        </mxCell>
        <mxCell id="UGIFeQAbizKQnOjiTDYc-26" style="edgeStyle=orthogonalEdgeStyle;curved=1;rounded=0;orthogonalLoop=1;jettySize=auto;html=1;exitX=0.5;exitY=1;exitDx=0;exitDy=0;entryX=0.5;entryY=0;entryDx=0;entryDy=0;" edge="1" parent="1" source="UGIFeQAbizKQnOjiTDYc-14" target="UGIFeQAbizKQnOjiTDYc-9">
          <mxGeometry relative="1" as="geometry" />
        </mxCell>
        <mxCell id="UGIFeQAbizKQnOjiTDYc-27" style="edgeStyle=orthogonalEdgeStyle;curved=1;rounded=0;orthogonalLoop=1;jettySize=auto;html=1;exitX=1;exitY=1;exitDx=0;exitDy=0;" edge="1" parent="1" source="UGIFeQAbizKQnOjiTDYc-14" target="UGIFeQAbizKQnOjiTDYc-6">
          <mxGeometry relative="1" as="geometry" />
        </mxCell>
        <mxCell id="UGIFeQAbizKQnOjiTDYc-28" style="edgeStyle=orthogonalEdgeStyle;curved=1;rounded=0;orthogonalLoop=1;jettySize=auto;html=1;exitX=1;exitY=0.5;exitDx=0;exitDy=0;" edge="1" parent="1" source="UGIFeQAbizKQnOjiTDYc-14" target="UGIFeQAbizKQnOjiTDYc-20">
          <mxGeometry relative="1" as="geometry" />
        </mxCell>
        <mxCell id="UGIFeQAbizKQnOjiTDYc-14" value="4.1&lt;br&gt;查询" style="ellipse;whiteSpace=wrap;html=1;aspect=fixed;" vertex="1" parent="1">
          <mxGeometry x="230" y="170" width="80" height="80" as="geometry" />
        </mxCell>
        <mxCell id="UGIFeQAbizKQnOjiTDYc-33" style="edgeStyle=orthogonalEdgeStyle;curved=1;rounded=0;orthogonalLoop=1;jettySize=auto;html=1;exitX=0.5;exitY=0;exitDx=0;exitDy=0;entryX=0.633;entryY=1.02;entryDx=0;entryDy=0;entryPerimeter=0;" edge="1" parent="1" source="UGIFeQAbizKQnOjiTDYc-17" target="UGIFeQAbizKQnOjiTDYc-3">
          <mxGeometry relative="1" as="geometry" />
        </mxCell>
        <mxCell id="UGIFeQAbizKQnOjiTDYc-34" value="查询结果表格" style="edgeLabel;html=1;align=center;verticalAlign=middle;resizable=0;points=[];" vertex="1" connectable="0" parent="UGIFeQAbizKQnOjiTDYc-33">
          <mxGeometry x="0.2758" y="4" relative="1" as="geometry">
            <mxPoint as="offset" />
          </mxGeometry>
        </mxCell>
        <mxCell id="UGIFeQAbizKQnOjiTDYc-17" value="4.2&lt;br&gt;查询结果" style="ellipse;whiteSpace=wrap;html=1;aspect=fixed;" vertex="1" parent="1">
          <mxGeometry x="45" y="480" width="80" height="80" as="geometry" />
        </mxCell>
        <mxCell id="UGIFeQAbizKQnOjiTDYc-29" style="edgeStyle=orthogonalEdgeStyle;curved=1;rounded=0;orthogonalLoop=1;jettySize=auto;html=1;exitX=0.5;exitY=1;exitDx=0;exitDy=0;entryX=1;entryY=0;entryDx=0;entryDy=0;" edge="1" parent="1" source="UGIFeQAbizKQnOjiTDYc-19" target="UGIFeQAbizKQnOjiTDYc-17">
          <mxGeometry relative="1" as="geometry" />
        </mxCell>
        <mxCell id="UGIFeQAbizKQnOjiTDYc-19" value="用户信息数据" style="shape=partialRectangle;whiteSpace=wrap;html=1;left=0;right=0;fillColor=none;" vertex="1" parent="1">
          <mxGeometry x="150" y="350" width="120" height="60" as="geometry" />
        </mxCell>
        <mxCell id="UGIFeQAbizKQnOjiTDYc-32" style="edgeStyle=orthogonalEdgeStyle;curved=1;rounded=0;orthogonalLoop=1;jettySize=auto;html=1;exitX=0.5;exitY=1;exitDx=0;exitDy=0;entryX=0.638;entryY=1.013;entryDx=0;entryDy=0;entryPerimeter=0;" edge="1" parent="1" source="UGIFeQAbizKQnOjiTDYc-20" target="UGIFeQAbizKQnOjiTDYc-17">
          <mxGeometry relative="1" as="geometry" />
        </mxCell>
        <mxCell id="UGIFeQAbizKQnOjiTDYc-20" value="持卡人信息数据" style="shape=partialRectangle;whiteSpace=wrap;html=1;left=0;right=0;fillColor=none;" vertex="1" parent="1">
          <mxGeometry x="660" y="340" width="120" height="60" as="geometry" />
        </mxCell>
      </root>
    </mxGraphModel>
  </diagram>
</mxfile>
